<svg height="100%" version="1.1" width="100%" xmlns="http://www.w3.org/2000/svg" preserveAspectRatio="xMidYMid meet" viewBox="0 0 600 442" xmlns:xlink="http://www.w3.org/1999/xlink"><desc>Created with Snap</desc><defs/><g id="root" contentwidth="200" contentheight="144.78260869565216">
          <rect class="background" height="2000%" width="2000%" y="-1000%" x="-1000%" style="" fill="#ffffff"/>
          <rect class="watermarklayer" height="100%" width="100%" y="0" x="0" style="" fill="none"/>
          <g class="content" id="content" transform="matrix(1.087,0,0,1.087,240.2174,247.6304)">
            <g class="icon" style="mask: url(#mask);">
            <svg height="133.2" version="1.1" width="184" xmlns="http://www.w3.org/2000/svg" x="-37" y="-91.1"><desc>Created with Snap</desc><defs/><svg xmlns:xlink="http://www.w3.org/1999/xlink" version="1.1" xmlns="http://www.w3.org/2000/svg" viewBox="0 0 184 133.2"><defs/><g><path fill="#224b8f" stroke="none" class="nameBg sloganBg" paint-order="stroke fill markers" d=" M 12.5 32.49999999999999 Q 72 42.49999999999999 181.5 2.499999999999993 Q 151.5 66.6 171.5 110.69999999999999 Q 72 110.69999999999999 2.5 130.7 Q 42.5 66.6 12.5 32.49999999999999"/><path fill="#F9F400" stroke="none" paint-order="stroke fill markers" d=" M 32.5 100.69999999999999 L 52.5 107.36666666666667 L 22.5 116.69999999999999 M 151.5 32.49999999999999 L 131.5 25.83333333333333 L 161.5 16.499999999999993"/></g><desc>Created with Snap</desc></svg></svg></g>
            <g id="icon_name_and_slogan_gap">
            </g>
            <g class="name_and_slogan" id="name_and_slogan_id">
              <g class="name"><g id="nameDefaultGroup"><path d="M0.5 -35.6Q0.5 -36.6 1.1 -37.2Q1.7 -37.7 2.7 -37.7L5.9 -37.7Q6.9 -37.7 7.5 -38.3Q8.1 -38.9 8.1 -39.9L8.1 -44Q7.9 -45.9 8.7 -47.8Q9.5 -49.8 11.3 -51.2Q13.2 -52.6 15.3 -53.1Q17.1 -53.5 20 -53.6Q24 -53.6 25.8 -53.1Q27.7 -52.6 27.7 -50.7L27.7 -45.7Q27.7 -43.9 26.1 -43.9L25.3 -44.1Q23.7 -44.4 22.4 -44.4Q21.2 -44.4 19.6 -43.4Q18.3 -42.5 18.3 -40.8L18.3 -39.2Q18.3 -38.5 18.9 -38.1Q19.4 -37.7 20.5 -37.7L25.7 -37.7Q26.7 -37.7 27.3 -37.2Q27.9 -36.6 27.9 -35.6L27.9 -31Q27.9 -30 27.3 -29.4Q26.7 -28.8 25.7 -28.8L20.5 -28.8Q19.4 -28.8 18.9 -28.2Q18.3 -27.6 18.3 -26.6L18.3 1.2Q18.3 2.2 17.7 2.7Q17.1 3.3 16.1 3.3L10.2 3.3Q9.2 3.3 8.6 2.7Q8.1 2.2 8.1 1.2L8.1 -26.6Q8.1 -27.6 7.5 -28.2Q6.9 -28.8 5.9 -28.8L2.7 -28.8Q1.7 -28.8 1.1 -29.4Q0.5 -30 0.5 -31L0.5 -35.6L0.5 -35.6M32 -12.9Q30.8 -18.3 30.9 -23.9Q30.8 -29.5 32 -34.8Q32.7 -37.8 33.8 -40.6Q34.8 -42.9 36.4 -45.1Q38.9 -48.6 42.8 -50.7Q46.2 -52.3 50 -52.4Q53.8 -52.3 57.3 -50.6Q61.2 -48.5 63.8 -44.9Q65.2 -42.8 66.3 -40.5Q67.5 -37.7 68.2 -34.8Q69.2 -29.4 69.3 -23.9Q69.2 -18.4 68.2 -12.9Q67.5 -10 66.4 -7.2Q65.4 -4.9 63.9 -2.7Q61.3 0.8 57.5 2.8Q53.9 4.5 50 4.6Q46.1 4.5 42.7 2.9Q38.8 0.8 36.3 -2.7Q34.8 -4.8 33.8 -7.1Q32.6 -9.9 32 -12.9zM41.7 -30.2Q41.3 -27.1 41.3 -23.9Q41.3 -20.7 41.7 -17.5Q42.1 -14.1 43.3 -10.9Q44.3 -8.6 46.1 -6.8Q47.9 -5.5 50 -5.5Q52.2 -5.5 53.9 -6.8Q55.8 -8.6 56.8 -10.9Q58 -14.1 58.5 -17.5Q58.8 -20.7 58.9 -23.9Q58.8 -27.1 58.5 -30.2Q58 -33.6 56.7 -36.8Q55.7 -39.2 53.8 -40.9Q52.2 -42.3 50 -42.3Q47.8 -42.3 46.1 -40.9Q44.3 -39.2 43.3 -36.8Q42.1 -33.6 41.7 -30.2M75.6 -35.6Q75.6 -36.6 76.2 -37.2Q76.8 -37.7 77.8 -37.7L83.7 -37.7Q84.7 -37.7 85.2 -37.2Q85.8 -36.7 85.8 -35.8Q85.8 -35.1 86.4 -35.1Q87.2 -35.1 88.3 -35.9Q90.4 -37.2 92 -38Q93.6 -38.7 96.5 -38.9Q98.9 -38.8 101.2 -38.2Q103.8 -37.5 105.9 -35.5Q107.9 -33.2 108.6 -30.5Q109.5 -27.3 109.5 -23.6L109.5 1.2Q109.5 2.2 108.9 2.8Q108.4 3.4 107.4 3.4L101.5 3.4Q100.5 3.4 99.9 2.8Q99.4 2.2 99.4 1.2L99.4 -21.5Q99.5 -24.6 97.9 -27.4Q97.3 -28.4 96 -29.2Q94.7 -29.8 93.3 -29.9Q91.2 -29.9 89.1 -28.9Q87.4 -27.9 86.5 -27Q85.8 -26.2 85.8 -24.6L85.8 1.2Q85.8 2.2 85.2 2.8Q84.7 3.4 83.7 3.4L77.8 3.4Q76.8 3.4 76.2 2.8Q75.6 2.2 75.6 1.2L75.6 -35.6L75.6 -35.6" style="" fill="#ffffff" id="namepathdata"/></g></g>
              <g class="slogan"><g id="sloganDefaultGroup"/></g>
            </g>
            <g class="border">
            </g>
          </g>
          <defs id="defs">
            <mask xmlns="http://www.w3.org/2000/svg" id="mask">
                <rect id="showAll" fill="white" x="-37" y="-91.1" width="184" height="133.2"/>
                <rect id="hideNameBg" fill="black" x="0" y="0" width="0" height="0" stroke-width="2" stroke="black"/>
                <rect id="hideSloganBg" fill="black" x="0" y="0" width="0" height="0" stroke-width="2" stroke="black"/>
            <path d="M0.5 -35.6Q0.5 -36.6 1.1 -37.2Q1.7 -37.7 2.7 -37.7L5.9 -37.7Q6.9 -37.7 7.5 -38.3Q8.1 -38.9 8.1 -39.9L8.1 -44Q7.9 -45.9 8.7 -47.8Q9.5 -49.8 11.3 -51.2Q13.2 -52.6 15.3 -53.1Q17.1 -53.5 20 -53.6Q24 -53.6 25.8 -53.1Q27.7 -52.6 27.7 -50.7L27.7 -45.7Q27.7 -43.9 26.1 -43.9L25.3 -44.1Q23.7 -44.4 22.4 -44.4Q21.2 -44.4 19.6 -43.4Q18.3 -42.5 18.3 -40.8L18.3 -39.2Q18.3 -38.5 18.9 -38.1Q19.4 -37.7 20.5 -37.7L25.7 -37.7Q26.7 -37.7 27.3 -37.2Q27.9 -36.6 27.9 -35.6L27.9 -31Q27.9 -30 27.3 -29.4Q26.7 -28.8 25.7 -28.8L20.5 -28.8Q19.4 -28.8 18.9 -28.2Q18.3 -27.6 18.3 -26.6L18.3 1.2Q18.3 2.2 17.7 2.7Q17.1 3.3 16.1 3.3L10.2 3.3Q9.2 3.3 8.6 2.7Q8.1 2.2 8.1 1.2L8.1 -26.6Q8.1 -27.6 7.5 -28.2Q6.9 -28.8 5.9 -28.8L2.7 -28.8Q1.7 -28.8 1.1 -29.4Q0.5 -30 0.5 -31L0.5 -35.6L0.5 -35.6M32 -12.9Q30.8 -18.3 30.9 -23.9Q30.8 -29.5 32 -34.8Q32.7 -37.8 33.8 -40.6Q34.8 -42.9 36.4 -45.1Q38.9 -48.6 42.8 -50.7Q46.2 -52.3 50 -52.4Q53.8 -52.3 57.3 -50.6Q61.2 -48.5 63.8 -44.9Q65.2 -42.8 66.3 -40.5Q67.5 -37.7 68.2 -34.8Q69.2 -29.4 69.3 -23.9Q69.2 -18.4 68.2 -12.9Q67.5 -10 66.4 -7.2Q65.4 -4.9 63.9 -2.7Q61.3 0.8 57.5 2.8Q53.9 4.5 50 4.6Q46.1 4.5 42.7 2.9Q38.8 0.8 36.3 -2.7Q34.8 -4.8 33.8 -7.1Q32.6 -9.9 32 -12.9zM41.7 -30.2Q41.3 -27.1 41.3 -23.9Q41.3 -20.7 41.7 -17.5Q42.1 -14.1 43.3 -10.9Q44.3 -8.6 46.1 -6.8Q47.9 -5.5 50 -5.5Q52.2 -5.5 53.9 -6.8Q55.8 -8.6 56.8 -10.9Q58 -14.1 58.5 -17.5Q58.8 -20.7 58.9 -23.9Q58.8 -27.1 58.5 -30.2Q58 -33.6 56.7 -36.8Q55.7 -39.2 53.8 -40.9Q52.2 -42.3 50 -42.3Q47.8 -42.3 46.1 -40.9Q44.3 -39.2 43.3 -36.8Q42.1 -33.6 41.7 -30.2M75.6 -35.6Q75.6 -36.6 76.2 -37.2Q76.8 -37.7 77.8 -37.7L83.7 -37.7Q84.7 -37.7 85.2 -37.2Q85.8 -36.7 85.8 -35.8Q85.8 -35.1 86.4 -35.1Q87.2 -35.1 88.3 -35.9Q90.4 -37.2 92 -38Q93.6 -38.7 96.5 -38.9Q98.9 -38.8 101.2 -38.2Q103.8 -37.5 105.9 -35.5Q107.9 -33.2 108.6 -30.5Q109.5 -27.3 109.5 -23.6L109.5 1.2Q109.5 2.2 108.9 2.8Q108.4 3.4 107.4 3.4L101.5 3.4Q100.5 3.4 99.9 2.8Q99.4 2.2 99.4 1.2L99.4 -21.5Q99.5 -24.6 97.9 -27.4Q97.3 -28.4 96 -29.2Q94.7 -29.8 93.3 -29.9Q91.2 -29.9 89.1 -28.9Q87.4 -27.9 86.5 -27Q85.8 -26.2 85.8 -24.6L85.8 1.2Q85.8 2.2 85.2 2.8Q84.7 3.4 83.7 3.4L77.8 3.4Q76.8 3.4 76.2 2.8Q75.6 2.2 75.6 1.2L75.6 -35.6L75.6 -35.6" style="stroke-width: 0;" fill="#000000" id="masknamepathdata" stroke="#000000" paint-order="stroke" transform="matrix(1,0,0,1,0,0)"/></mask>
          
          </defs>
        </g>
        </svg>